<svg width="19" height="19" viewBox="0 0 19 19" fill="none" xmlns="http://www.w3.org/2000/svg">
<path d="M4.09129 4.55335C3.48269 5.16195 3.06893 5.91155 2.88152 6.72981H3.18768C3.5365 5.33265 4.58113 4.20824 5.93376 3.74808V3.43451C5.24539 3.64974 4.61638 4.02826 4.09129 4.55335Z" fill="#A3A3A3"/>
<path d="M17.8104 10.0344C17.8104 12.1422 16.1015 13.8529 13.9937 13.8548H10.9637V13.0384H13.9937C14.7952 13.0384 15.5486 12.7248 16.1145 12.1589C16.6823 11.5911 16.994 10.8378 16.994 10.0344C16.994 9.23279 16.6823 8.47762 16.1145 7.9117C15.5467 7.34578 14.7915 7.03221 13.99 7.03221C13.7766 7.03221 13.5669 7.05448 13.3628 7.09715C13.0845 7.15653 12.8173 7.25301 12.5687 7.38846C12.5501 7.10272 12.5075 6.81883 12.4425 6.54237V6.54051C12.3757 6.25106 12.2829 5.96903 12.166 5.69256C11.8989 5.06356 11.5185 4.49764 11.0324 4.01151C10.5462 3.52538 9.98216 3.14501 9.35131 2.87782C8.70004 2.60321 8.00795 2.4622 7.2936 2.4622C6.57924 2.4622 5.88715 2.60136 5.23588 2.87782C4.60688 3.14315 4.04096 3.52538 3.55483 4.01151C3.0687 4.49764 2.68833 5.06356 2.42114 5.69256C2.14468 6.34383 2.00552 7.03592 2.00552 7.75028C2.00552 8.46463 2.14468 9.15672 2.42114 9.80799C2.68647 10.437 3.0687 11.0029 3.55483 11.489C4.04096 11.9752 4.60688 12.3555 5.23588 12.6227C5.88715 12.8973 6.57924 13.0384 7.2936 13.0384H8.03021V13.8548H7.26947C3.90923 13.8418 1.18911 11.1142 1.18911 7.75028C1.18911 4.37889 3.92221 1.64579 7.2936 1.64579C10.1621 1.64579 12.5687 3.62372 13.2218 6.29002V6.29188C13.4704 6.24178 13.7265 6.21395 13.99 6.21395C16.0996 6.21581 17.8104 7.92469 17.8104 10.0344Z" fill="#A3A3A3"/>
<path d="M12.8561 11.8026H12.4367L9.64427 9.01013V17.3523H9.3474V9.01384L6.55678 11.8026H6.13744L9.49584 8.44421L12.8561 11.8026Z" fill="#A3A3A3"/>
</svg>
