<svg width="30" height="30" viewBox="0 0 30 30" fill="none" xmlns="http://www.w3.org/2000/svg">
<path d="M15.642 15.0325L5.47803 24.9283C5.80246 26.0314 6.84071 26.875 8.07365 26.875C8.59278 26.875 9.04703 26.7452 9.43634 26.4857L20.7922 20.0615L15.642 15.0325Z" stroke="#A3A3A3" stroke-width="0.625" stroke-linecap="round" stroke-linejoin="round"/>
<path d="M25.5942 12.6638L20.7274 9.87354L15.6421 15.0323L20.7923 20.0613L25.6591 17.3359C26.5027 16.8817 27.0867 15.9732 27.0867 14.9998C27.0218 14.0265 26.4378 13.1181 25.5942 12.6638Z" stroke="#A3A3A3" stroke-width="0.625" stroke-linecap="round" stroke-linejoin="round"/>
<path d="M5.47796 5.07178C5.41309 5.26646 5.41309 5.52603 5.41309 5.78559V24.2795C5.41309 24.539 5.41309 24.7337 5.47796 24.9933L15.642 15.0325L5.47796 5.07178Z" stroke="#A3A3A3" stroke-width="0.625" stroke-linecap="round" stroke-linejoin="round"/>
<path d="M15.642 15.0324L20.7273 9.87362L9.50128 3.51438C9.1119 3.25481 8.59278 3.125 8.07365 3.125C6.84071 3.125 5.73759 3.96856 5.47803 5.07175L15.642 15.0324Z" stroke="#A3A3A3" stroke-width="0.625" stroke-linecap="round" stroke-linejoin="round"/>
</svg>
