<svg width="35" height="35" viewBox="0 0 35 35" fill="none" xmlns="http://www.w3.org/2000/svg">
<path d="M30.6251 17.5001C30.6251 14.9042 29.8553 12.3666 28.4131 10.2082C26.9709 8.0498 24.9211 6.36754 22.5228 5.37413C20.1245 4.38073 17.4855 4.12081 14.9395 4.62725C12.3935 5.13368 10.0548 6.38371 8.21928 8.21928C6.38371 10.0548 5.13368 12.3935 4.62725 14.9395C4.12081 17.4855 4.38073 20.1245 5.37413 22.5228C6.36754 24.9211 8.0498 26.9709 10.2082 28.4131C12.3666 29.8553 14.9042 30.6251 17.5001 30.6251M17.5001 10.2084V15.6976C17.5001 16.2393 17.651 16.7704 17.9359 17.2312C18.2208 17.692 18.6284 18.0644 19.113 18.3065L23.3334 20.4167M27.7084 23.3334V27.7084M27.7084 27.7084V32.0834M27.7084 27.7084H23.3334M27.7084 27.7084H32.0834" stroke="#A3A3A3" stroke-width="2.88083" stroke-linecap="round" stroke-linejoin="round"/>
</svg>
