<svg width="46" height="46" viewBox="0 0 46 46" fill="none" xmlns="http://www.w3.org/2000/svg">
<g clip-path="url(#clip0_12_684)">
<path fill-rule="evenodd" clip-rule="evenodd" d="M2.875 22.9999C2.875 18.6874 10.0625 8.62488 23 8.62488C35.9375 8.62488 43.125 18.6874 43.125 22.9999C43.125 27.3124 35.9375 37.3749 23 37.3749C10.0625 37.3749 2.875 27.3124 2.875 22.9999ZM23 32.104C25.4146 32.104 27.7303 31.1449 29.4376 29.4375C31.145 27.7301 32.1042 25.4145 32.1042 22.9999C32.1042 20.5853 31.145 18.2696 29.4376 16.5623C27.7303 14.8549 25.4146 13.8957 23 13.8957C20.5854 13.8957 18.2697 14.8549 16.5624 16.5623C14.855 18.2696 13.8958 20.5853 13.8958 22.9999C13.8958 25.4145 14.855 27.7301 16.5624 29.4375C18.2697 31.1449 20.5854 32.104 23 32.104ZM28.175 22.9999C28.175 24.3724 27.6298 25.6887 26.6593 26.6592C25.6888 27.6297 24.3725 28.1749 23 28.1749C21.6275 28.1749 20.3112 27.6297 19.3407 26.6592C18.3702 25.6887 17.825 24.3724 17.825 22.9999C17.825 21.6274 18.3702 20.3111 19.3407 19.3406C20.3112 18.3701 21.6275 17.8249 23 17.8249C24.3725 17.8249 25.6888 18.3701 26.6593 19.3406C27.6298 20.3111 28.175 21.6274 28.175 22.9999Z" fill="#A3A3A3"/>
<g clip-path="url(#clip1_12_684)">
<path d="M8.21268 -335.95C11.7002 -335.95 14.0002 -329.587 14.0002 -329.587L124.075 -95.1L383.188 -55.5125L195.7 136.738L239.963 408L8.21268 279.825L-223.537 408L-179.275 136.738L-366.762 -55.5125L-107.65 -95.1L2.3252 -329.387C2.3252 -329.387 4.72516 -335.95 8.21268 -335.95ZM8.21268 -366.912C-1.47482 -366.912 -10.2873 -361.312 -14.4248 -352.537L-124.612 -117.812L-370.537 -80.2375C-379.8 -78.825 -387.487 -72.3375 -390.475 -63.45C-393.45 -54.575 -391.212 -44.775 -384.662 -38.0625L-205.987 145.15L-248.212 403.95C-249.762 413.4 -245.775 422.913 -237.937 428.413C-233.637 431.463 -228.587 433 -223.537 433C-219.387 433 -215.212 431.95 -211.437 429.875L8.21268 308.388L227.863 429.875C231.638 431.95 235.813 433 239.963 433C245.013 433 250.063 431.463 254.35 428.425C262.188 422.925 266.175 413.412 264.625 403.963L222.4 145.163L401.075 -38.05C407.613 -44.7625 409.863 -54.5625 406.888 -63.4375C403.913 -72.325 396.213 -78.8 386.95 -80.225L141.025 -117.8L30.8502 -352.537C26.7127 -361.312 17.9002 -366.912 8.21268 -366.912Z" fill="#231F20"/>
</g>
</g>
<defs>
<clipPath id="clip0_12_684">
<rect width="46" height="46" fill="white"/>
</clipPath>
<clipPath id="clip1_12_684">
<rect width="800" height="800" fill="white" transform="translate(-391.8 -367)"/>
</clipPath>
</defs>
</svg>
