<svg width="30" height="30" viewBox="0 0 30 30" fill="none" xmlns="http://www.w3.org/2000/svg">
<g clip-path="url(#clip0_12_817)">
<path fill-rule="evenodd" clip-rule="evenodd" d="M25.8766 22.0745C26.4661 21.9215 27.8327 21.6765 28.4132 21.8042C29.2307 21.877 29.7227 22.0125 29.8862 22.21C30.2327 22.7238 29.7137 24.5245 29.4767 25.1111C29.2682 25.6279 28.2917 27.2857 27.7862 27.2857C27.6317 27.2857 27.5147 27.1728 27.5942 26.9619C29.4496 22.6421 28.6201 22.7561 25.8766 22.9922C25.5226 23.0353 24.2236 23.2951 24.3766 22.9922C24.3766 22.6343 25.5181 22.1665 25.8766 22.0745ZM12.9496 14.2178C12.9496 14.9202 13.1267 15.4828 13.4807 15.9046C14.4947 17.1133 16.3456 16.466 17.1226 15.0286C17.5501 14.295 17.9942 12.8616 17.9942 11.0039C16.4942 11.0039 16.0172 11.0767 15.4727 11.2207C13.8722 11.6707 12.9496 12.6704 12.9496 14.2178ZM8.25915 14.7583C8.25915 12.2279 9.62116 10.4548 11.7227 9.57423C13.5782 8.79165 16.1387 8.57745 17.9942 8.46608C17.9942 6.24156 17.6897 4.46998 15.3497 4.46998C14.5982 4.46998 13.2556 5.30296 12.9496 6.69142C12.8761 7.05079 12.6946 7.30959 12.4036 7.36305L9.26714 7.01075C8.88764 6.92165 8.74064 6.71387 8.83064 6.3545C9.46364 3.07567 12.2177 1.67524 15.3497 1.50001C16.8497 1.50001 19.1176 1.48107 20.8861 3.09376C22.7971 4.98711 22.4942 7.37164 22.4942 13.5432C22.4942 15.0252 22.5166 15.1674 23.5306 16.4846C23.7346 16.7876 23.7526 17.0764 23.4556 17.2962C21.9466 18.5925 21.1261 19.2935 20.9986 19.4019C20.7796 19.5637 20.5142 19.5808 20.2052 19.4546C18.8627 18.3156 19.1852 18.3847 18.3497 17.3496C16.6562 19.1761 15.3256 19.6721 13.0591 19.6721C10.3651 19.6721 8.25915 18.0074 8.25915 14.7583ZM0.48616 22.4246C5.03116 25.0352 9.97665 26.3408 15.3226 26.3408C18.8851 26.3408 22.4041 25.6834 25.8766 24.3692C26.4031 24.1613 26.9582 23.7558 27.2807 24.2073C27.4352 24.4241 27.3857 24.6216 27.1307 24.8013C23.7662 27.207 19.0772 28.5 14.9942 28.5C9.21766 28.5 4.07866 26.378 0.159156 22.8838C-0.190344 22.5972 0.0886596 22.1751 0.48616 22.4246Z" fill="#A3A3A3"/>
</g>
<defs>
<clipPath id="clip0_12_817">
<rect width="30" height="30" fill="white"/>
</clipPath>
</defs>
</svg>
