<svg width="30" height="21" viewBox="0 0 30 21" fill="none" xmlns="http://www.w3.org/2000/svg">
<path fill-rule="evenodd" clip-rule="evenodd" d="M11.9827 14.3792V5.96145C14.971 7.36759 17.2854 8.72596 20.0227 10.1905C17.765 11.4425 14.971 12.8474 11.9827 14.3792ZM28.6365 1.77493C28.121 1.09579 27.2425 0.567133 26.3071 0.392113C23.5579 -0.129962 6.40648 -0.131447 3.65873 0.392113C2.90866 0.532723 2.24075 0.872598 1.667 1.40066C-0.750544 3.64451 0.00699927 15.6776 0.589721 17.6267C0.834761 18.4704 1.15154 19.0789 1.55048 19.4783C2.06446 20.0063 2.7682 20.3699 3.57654 20.533C5.84018 21.0012 17.5021 21.263 26.2593 20.6033C27.0661 20.4627 27.7803 20.0874 28.3436 19.5369C30.5789 17.302 30.4265 4.5932 28.6365 1.77493Z" fill="#A3A3A3"/>
</svg>
