<svg width="15" height="28" viewBox="0 0 15 28" fill="none" xmlns="http://www.w3.org/2000/svg">
<path d="M6.61207 3.51727L9.13691 10.6506L9.63062 12.0455L9.63937 6.03336L9.65187 0.0112492H14.989L14.999 13.5879C15.0028 21.0624 14.9953 27.1995 14.9803 27.212C14.9653 27.2232 14.719 27.212 14.4353 27.1782C13.1991 27.0307 11.573 26.8832 10.2606 26.8258C9.99528 26.8157 9.73024 26.7999 9.46563 26.7783C9.46188 26.7733 9.12441 25.8258 8.4957 24.0484V24.0434L5.81587 16.4677L5.3909 15.2753L5.3809 21.0074C5.3734 26.4633 5.3684 26.7695 5.30965 26.7695C5.10592 26.7695 3.34728 26.882 2.75982 26.9395C2.37485 26.9732 1.6024 27.052 1.04743 27.1207C0.489968 27.1845 0.027498 27.227 0.0187486 27.2182C0.00749935 27.2107 0 21.0824 0 13.6029V0.0024998H0.00624974V0H5.3659L5.4009 0.0999935C5.40965 0.119992 5.48214 0.319979 5.59714 0.646208L6.39833 2.86856L6.61457 3.48852L6.61332 3.51727H6.61207Z" fill="#A3A3A3"/>
</svg>
