<svg width="26" height="30" viewBox="0 0 26 30" fill="none" xmlns="http://www.w3.org/2000/svg">
<path fill-rule="evenodd" clip-rule="evenodd" d="M17.3565 4.78935C18.4501 3.52185 19.1873 1.75648 18.9855 0C17.4096 0.0600005 15.5029 1.00673 14.3729 2.27272C13.3582 3.39622 12.4724 5.19139 12.7105 6.91339C14.4685 7.04387 16.2629 6.05833 17.3565 4.78935ZM21.2987 15.9376C21.3426 20.4781 25.4547 21.9885 25.5002 22.008C25.4668 22.1145 24.8434 24.1601 23.3342 26.2751C22.0282 28.1021 20.6737 29.9217 18.5396 29.9607C16.4434 29.9982 15.7684 28.7698 13.3703 28.7698C10.9737 28.7698 10.2244 29.9215 8.24046 29.998C6.18064 30.0715 4.61074 28.0214 3.29567 26.2004C0.604857 22.4759 -1.45041 15.6753 1.31017 11.0853C2.68137 8.80681 5.13101 7.36174 7.79149 7.32574C9.81339 7.28824 11.7231 8.62946 12.9593 8.62946C14.1954 8.62946 16.5162 7.01696 18.9552 7.25397C19.976 7.29447 22.8428 7.64834 24.6826 10.2298C24.534 10.3183 21.2622 12.1427 21.2987 15.9376Z" fill="#A3A3A3"/>
</svg>
